<mxfile host="app.diagrams.net" agent="Mozilla/5.0 (Windows NT 10.0; Win64; x64) AppleWebKit/537.36 (KHTML, like Gecko) Chrome/130.0.0.0 Safari/537.36" version="24.8.4">
  <diagram name="第 1 页" id="0XREII6UDPWBXihWECTZ">
    <mxGraphModel dx="1260" dy="652" grid="1" gridSize="10" guides="1" tooltips="1" connect="1" arrows="1" fold="1" page="1" pageScale="1" pageWidth="827" pageHeight="1169" math="0" shadow="0">
      <root>
        <mxCell id="0" />
        <mxCell id="1" parent="0" />
        <mxCell id="VtJg6Y5JsxJt4Cq70RZ5-1" value="" style="shape=cube;whiteSpace=wrap;html=1;boundedLbl=1;backgroundOutline=1;darkOpacity=0.05;darkOpacity2=0.1;rotation=0;flipH=1;" vertex="1" parent="1">
          <mxGeometry x="70" y="190" width="150" height="160" as="geometry" />
        </mxCell>
        <mxCell id="VtJg6Y5JsxJt4Cq70RZ5-3" value="智能手机/网页" style="rounded=0;whiteSpace=wrap;html=1;" vertex="1" parent="1">
          <mxGeometry x="90" y="150" width="130" height="40" as="geometry" />
        </mxCell>
        <mxCell id="VtJg6Y5JsxJt4Cq70RZ5-4" value="移动app/web前端" style="rounded=0;whiteSpace=wrap;html=1;" vertex="1" parent="1">
          <mxGeometry x="90" y="220" width="100" height="40" as="geometry" />
        </mxCell>
        <mxCell id="VtJg6Y5JsxJt4Cq70RZ5-5" value="" style="endArrow=classic;html=1;rounded=0;exitX=0.5;exitY=1;exitDx=0;exitDy=0;entryX=0.5;entryY=0;entryDx=0;entryDy=0;" edge="1" parent="1" source="VtJg6Y5JsxJt4Cq70RZ5-4" target="VtJg6Y5JsxJt4Cq70RZ5-6">
          <mxGeometry width="50" height="50" relative="1" as="geometry">
            <mxPoint x="110" y="270" as="sourcePoint" />
            <mxPoint x="300" y="270" as="targetPoint" />
          </mxGeometry>
        </mxCell>
        <mxCell id="VtJg6Y5JsxJt4Cq70RZ5-6" value="OS&lt;div&gt;Android&lt;/div&gt;" style="rounded=0;whiteSpace=wrap;html=1;" vertex="1" parent="1">
          <mxGeometry x="90" y="290" width="100" height="40" as="geometry" />
        </mxCell>
        <mxCell id="VtJg6Y5JsxJt4Cq70RZ5-7" value="" style="shape=cube;whiteSpace=wrap;html=1;boundedLbl=1;backgroundOutline=1;darkOpacity=0.05;darkOpacity2=0.1;rotation=0;flipH=1;" vertex="1" parent="1">
          <mxGeometry x="310" y="140" width="180" height="210" as="geometry" />
        </mxCell>
        <mxCell id="VtJg6Y5JsxJt4Cq70RZ5-8" value="PC机" style="rounded=0;whiteSpace=wrap;html=1;" vertex="1" parent="1">
          <mxGeometry x="330" y="100" width="160" height="40" as="geometry" />
        </mxCell>
        <mxCell id="VtJg6Y5JsxJt4Cq70RZ5-9" value="应用服务器&lt;div&gt;（业务逻辑层）&lt;/div&gt;" style="rounded=0;whiteSpace=wrap;html=1;" vertex="1" parent="1">
          <mxGeometry x="330" y="180" width="130" height="40" as="geometry" />
        </mxCell>
        <mxCell id="VtJg6Y5JsxJt4Cq70RZ5-10" value="" style="endArrow=classic;html=1;rounded=0;exitX=0.5;exitY=1;exitDx=0;exitDy=0;entryX=0.5;entryY=0;entryDx=0;entryDy=0;" edge="1" parent="1" source="VtJg6Y5JsxJt4Cq70RZ5-9" target="VtJg6Y5JsxJt4Cq70RZ5-11">
          <mxGeometry width="50" height="50" relative="1" as="geometry">
            <mxPoint x="350" y="230" as="sourcePoint" />
            <mxPoint x="540" y="230" as="targetPoint" />
          </mxGeometry>
        </mxCell>
        <mxCell id="VtJg6Y5JsxJt4Cq70RZ5-11" value="OS&lt;div&gt;Ubuntu&lt;/div&gt;" style="rounded=0;whiteSpace=wrap;html=1;" vertex="1" parent="1">
          <mxGeometry x="330" y="280" width="130" height="40" as="geometry" />
        </mxCell>
        <mxCell id="VtJg6Y5JsxJt4Cq70RZ5-12" value="" style="endArrow=classic;html=1;rounded=0;exitX=0;exitY=0;exitDx=0;exitDy=70;exitPerimeter=0;entryX=0.993;entryY=0.575;entryDx=0;entryDy=0;entryPerimeter=0;" edge="1" parent="1" source="VtJg6Y5JsxJt4Cq70RZ5-1" target="VtJg6Y5JsxJt4Cq70RZ5-7">
          <mxGeometry width="50" height="50" relative="1" as="geometry">
            <mxPoint x="120" y="490" as="sourcePoint" />
            <mxPoint x="210" y="490" as="targetPoint" />
          </mxGeometry>
        </mxCell>
        <mxCell id="VtJg6Y5JsxJt4Cq70RZ5-14" value="请求/响应" style="edgeLabel;html=1;align=center;verticalAlign=middle;resizable=0;points=[];" vertex="1" connectable="0" parent="VtJg6Y5JsxJt4Cq70RZ5-12">
          <mxGeometry x="-0.1685" y="-4" relative="1" as="geometry">
            <mxPoint x="6" y="-4" as="offset" />
          </mxGeometry>
        </mxCell>
        <mxCell id="VtJg6Y5JsxJt4Cq70RZ5-15" value="" style="shape=cube;whiteSpace=wrap;html=1;boundedLbl=1;backgroundOutline=1;darkOpacity=0.05;darkOpacity2=0.1;rotation=0;flipH=1;" vertex="1" parent="1">
          <mxGeometry x="570" y="120" width="180" height="210" as="geometry" />
        </mxCell>
        <mxCell id="VtJg6Y5JsxJt4Cq70RZ5-16" value="PC机" style="rounded=0;whiteSpace=wrap;html=1;" vertex="1" parent="1">
          <mxGeometry x="590" y="80" width="160" height="40" as="geometry" />
        </mxCell>
        <mxCell id="VtJg6Y5JsxJt4Cq70RZ5-17" value="缓存服务器&lt;div&gt;（如 Redis）&lt;/div&gt;" style="rounded=0;whiteSpace=wrap;html=1;" vertex="1" parent="1">
          <mxGeometry x="590" y="160" width="130" height="40" as="geometry" />
        </mxCell>
        <mxCell id="VtJg6Y5JsxJt4Cq70RZ5-18" value="" style="endArrow=classic;html=1;rounded=0;exitX=0.5;exitY=1;exitDx=0;exitDy=0;entryX=0.5;entryY=0;entryDx=0;entryDy=0;" edge="1" parent="1" source="VtJg6Y5JsxJt4Cq70RZ5-17" target="VtJg6Y5JsxJt4Cq70RZ5-19">
          <mxGeometry width="50" height="50" relative="1" as="geometry">
            <mxPoint x="610" y="210" as="sourcePoint" />
            <mxPoint x="800" y="210" as="targetPoint" />
          </mxGeometry>
        </mxCell>
        <mxCell id="VtJg6Y5JsxJt4Cq70RZ5-19" value="OS&lt;div&gt;Ubuntu&lt;/div&gt;" style="rounded=0;whiteSpace=wrap;html=1;" vertex="1" parent="1">
          <mxGeometry x="590" y="260" width="130" height="40" as="geometry" />
        </mxCell>
        <mxCell id="VtJg6Y5JsxJt4Cq70RZ5-20" value="" style="endArrow=classic;startArrow=classic;html=1;rounded=0;exitX=0;exitY=0;exitDx=0;exitDy=95;exitPerimeter=0;entryX=0;entryY=0;entryDx=180;entryDy=115;entryPerimeter=0;" edge="1" parent="1" source="VtJg6Y5JsxJt4Cq70RZ5-7" target="VtJg6Y5JsxJt4Cq70RZ5-15">
          <mxGeometry width="50" height="50" relative="1" as="geometry">
            <mxPoint x="520" y="450" as="sourcePoint" />
            <mxPoint x="570" y="400" as="targetPoint" />
          </mxGeometry>
        </mxCell>
        <mxCell id="VtJg6Y5JsxJt4Cq70RZ5-22" value="" style="shape=cube;whiteSpace=wrap;html=1;boundedLbl=1;backgroundOutline=1;darkOpacity=0.05;darkOpacity2=0.1;rotation=0;flipH=1;" vertex="1" parent="1">
          <mxGeometry x="305" y="450" width="180" height="210" as="geometry" />
        </mxCell>
        <mxCell id="VtJg6Y5JsxJt4Cq70RZ5-23" value="PC机" style="rounded=0;whiteSpace=wrap;html=1;" vertex="1" parent="1">
          <mxGeometry x="325" y="410" width="160" height="40" as="geometry" />
        </mxCell>
        <mxCell id="VtJg6Y5JsxJt4Cq70RZ5-24" value="数据库服务器&lt;div&gt;（MySQL/PostgreSQL）&lt;/div&gt;" style="rounded=0;whiteSpace=wrap;html=1;" vertex="1" parent="1">
          <mxGeometry x="325" y="490" width="130" height="40" as="geometry" />
        </mxCell>
        <mxCell id="VtJg6Y5JsxJt4Cq70RZ5-25" value="" style="endArrow=classic;html=1;rounded=0;exitX=0.5;exitY=1;exitDx=0;exitDy=0;entryX=0.5;entryY=0;entryDx=0;entryDy=0;" edge="1" parent="1" source="VtJg6Y5JsxJt4Cq70RZ5-24" target="VtJg6Y5JsxJt4Cq70RZ5-26">
          <mxGeometry width="50" height="50" relative="1" as="geometry">
            <mxPoint x="345" y="540" as="sourcePoint" />
            <mxPoint x="535" y="540" as="targetPoint" />
          </mxGeometry>
        </mxCell>
        <mxCell id="VtJg6Y5JsxJt4Cq70RZ5-26" value="OS&lt;div&gt;Ubuntu&lt;/div&gt;" style="rounded=0;whiteSpace=wrap;html=1;" vertex="1" parent="1">
          <mxGeometry x="325" y="590" width="130" height="40" as="geometry" />
        </mxCell>
        <mxCell id="VtJg6Y5JsxJt4Cq70RZ5-27" value="" style="endArrow=classic;html=1;rounded=0;exitX=0;exitY=0;exitDx=100;exitDy=210;exitPerimeter=0;entryX=0.411;entryY=-0.036;entryDx=0;entryDy=0;entryPerimeter=0;" edge="1" parent="1" source="VtJg6Y5JsxJt4Cq70RZ5-7" target="VtJg6Y5JsxJt4Cq70RZ5-23">
          <mxGeometry width="50" height="50" relative="1" as="geometry">
            <mxPoint x="100" y="490" as="sourcePoint" />
            <mxPoint x="150" y="440" as="targetPoint" />
          </mxGeometry>
        </mxCell>
        <mxCell id="VtJg6Y5JsxJt4Cq70RZ5-28" value="数据查询" style="edgeLabel;html=1;align=center;verticalAlign=middle;resizable=0;points=[];" vertex="1" connectable="0" parent="VtJg6Y5JsxJt4Cq70RZ5-27">
          <mxGeometry x="0.0093" y="-3" relative="1" as="geometry">
            <mxPoint as="offset" />
          </mxGeometry>
        </mxCell>
        <mxCell id="VtJg6Y5JsxJt4Cq70RZ5-29" value="" style="shape=cube;whiteSpace=wrap;html=1;boundedLbl=1;backgroundOutline=1;darkOpacity=0.05;darkOpacity2=0.1;rotation=0;flipH=1;" vertex="1" parent="1">
          <mxGeometry x="570" y="440" width="180" height="210" as="geometry" />
        </mxCell>
        <mxCell id="VtJg6Y5JsxJt4Cq70RZ5-30" value="PC机" style="rounded=0;whiteSpace=wrap;html=1;" vertex="1" parent="1">
          <mxGeometry x="590" y="400" width="160" height="40" as="geometry" />
        </mxCell>
        <mxCell id="VtJg6Y5JsxJt4Cq70RZ5-31" value="人工智能服务&lt;div&gt;（讯飞星火API）&lt;/div&gt;" style="rounded=0;whiteSpace=wrap;html=1;" vertex="1" parent="1">
          <mxGeometry x="590" y="480" width="130" height="40" as="geometry" />
        </mxCell>
        <mxCell id="VtJg6Y5JsxJt4Cq70RZ5-32" value="" style="endArrow=classic;html=1;rounded=0;exitX=0.5;exitY=1;exitDx=0;exitDy=0;entryX=0.5;entryY=0;entryDx=0;entryDy=0;" edge="1" parent="1" source="VtJg6Y5JsxJt4Cq70RZ5-31" target="VtJg6Y5JsxJt4Cq70RZ5-33">
          <mxGeometry width="50" height="50" relative="1" as="geometry">
            <mxPoint x="610" y="530" as="sourcePoint" />
            <mxPoint x="800" y="530" as="targetPoint" />
          </mxGeometry>
        </mxCell>
        <mxCell id="VtJg6Y5JsxJt4Cq70RZ5-33" value="OS&lt;div&gt;Ubuntu&lt;/div&gt;" style="rounded=0;whiteSpace=wrap;html=1;" vertex="1" parent="1">
          <mxGeometry x="590" y="580" width="130" height="40" as="geometry" />
        </mxCell>
        <mxCell id="VtJg6Y5JsxJt4Cq70RZ5-34" value="" style="endArrow=classic;startArrow=classic;html=1;rounded=0;entryX=0;entryY=0;entryDx=0;entryDy=95;entryPerimeter=0;exitX=1.011;exitY=0.508;exitDx=0;exitDy=0;exitPerimeter=0;" edge="1" parent="1" source="VtJg6Y5JsxJt4Cq70RZ5-29" target="VtJg6Y5JsxJt4Cq70RZ5-22">
          <mxGeometry width="50" height="50" relative="1" as="geometry">
            <mxPoint x="110" y="600" as="sourcePoint" />
            <mxPoint x="160" y="550" as="targetPoint" />
          </mxGeometry>
        </mxCell>
      </root>
    </mxGraphModel>
  </diagram>
</mxfile>
